<?xml version="1.0" encoding="UTF-8"?>
<svg version="1.1" xmlns="http://www.w3.org/2000/svg" width="24" height="24">
<path d="M0 0 C1.62499793 -0.01327613 3.25039961 0.00074645 4.875 0.0390625 C6.10476563 0.01005859 6.10476563 0.01005859 7.359375 -0.01953125 C9.64552547 -0.00085355 11.65556537 0.11567073 13.875 0.6640625 C17.32561615 4.22044466 17.28103278 7.86432554 17.25 12.6640625 C17.25773437 13.8603125 17.26546875 15.0565625 17.2734375 16.2890625 C16.82648331 20.07502738 16.54483777 21.91239062 13.875 24.6640625 C10.86139243 25.40868349 7.9647138 25.36193311 4.875 25.2890625 C3.64523437 25.31806641 3.64523437 25.31806641 2.390625 25.34765625 C0.10447453 25.32897855 -1.90556537 25.21245427 -4.125 24.6640625 C-7.57561615 21.10768034 -7.53103278 17.46379946 -7.5 12.6640625 C-7.50773438 11.4678125 -7.51546875 10.2715625 -7.5234375 9.0390625 C-6.86735461 3.48165445 -5.83543957 0.51650065 0 0 Z M-1.125 7.6640625 C-3.49192966 10.51232848 -3.49192966 10.51232848 -2.75 13.8515625 C-2.54375 14.7796875 -2.3375 15.7078125 -2.125 16.6640625 C-0.805 16.6640625 0.515 16.6640625 1.875 16.6640625 C1.875 14.0240625 1.875 11.3840625 1.875 8.6640625 C0.885 8.3340625 -0.105 8.0040625 -1.125 7.6640625 Z M7.875 7.6640625 C6.67511955 12.94605843 6.67511955 12.94605843 8.875 17.6640625 C9.865 17.3340625 10.855 17.0040625 11.875 16.6640625 C12.55993373 13.80628217 12.55993373 13.80628217 12.875 10.6640625 C12.215 9.6740625 11.555 8.6840625 10.875 7.6640625 C9.885 7.6640625 8.895 7.6640625 7.875 7.6640625 Z " fill="#F8AA00" transform="translate(7.125,-0.6640625)"/>
<path d="M0 0 C2.84413001 2.84413001 2.30005258 4.85007159 2.3125 8.8125 C2.32925781 10.03582031 2.34601562 11.25914063 2.36328125 12.51953125 C1.97570027 16.23280706 1.39796566 18.15039955 -1 21 C-3.79965679 21.66913403 -6.08800141 21.23868841 -9 21 C-9.75 19.25 -9.75 19.25 -10 17 C-8.1875 14.75 -8.1875 14.75 -6 13 C-5.34 13 -4.68 13 -4 13 C-3.855625 12.0925 -3.71125 11.185 -3.5625 10.25 C-2.83865933 6.06780948 -2.37395115 3.56092673 0 0 Z " fill="#E77009" transform="translate(22,3)"/>
<path d="M0 0 C2 1.375 2 1.375 4 4 C4.59023616 7.41655928 4.59023616 10.58344072 4 14 C2 16.625 2 16.625 0 18 C-1.48619895 15.02760209 -1.13177009 12.30380422 -1.125 9 C-1.12757812 7.741875 -1.13015625 6.48375 -1.1328125 5.1875 C-1 2 -1 2 0 0 Z " fill="#E87309" transform="translate(1,3)"/>
</svg>
