<?xml version="1.0" encoding="UTF-8"?>
<svg version="1.1" xmlns="http://www.w3.org/2000/svg" width="24" height="24">
<path d="M0 0 C-0.226875 0.7425 -0.45375 1.485 -0.6875 2.25 C-0.790625 3.1575 -0.89375 4.065 -1 5 C-0.505 5.61875 -0.01 6.2375 0.5 6.875 C2 9 2 9 2.0625 12.4375 C0.6886915 17.04379907 -0.9606748 18.45672117 -5 21 C-8.95337324 21.93808857 -11.14217025 22.28594325 -15 21 C-15.33 21.99 -15.66 22.98 -16 24 C-17.65 24 -19.3 24 -21 24 C-21 22.68 -21 21.36 -21 20 C-20.34 20 -19.68 20 -19 20 C-19.515625 19.34 -20.03125 18.68 -20.5625 18 C-22.56345631 13.82409118 -21.90012353 11.50061765 -21 7 C-20.67 6.67 -20.34 6.34 -20 6 C-20.66 5.67 -21.32 5.34 -22 5 C-22 4.01 -22 3.02 -22 2 C-21.34 2.20625 -20.68 2.4125 -20 2.625 C-15.98352493 3.12705938 -12.84531279 2.0941947 -9 1 C-5.76540566 0.26486492 -3.37109665 0 0 0 Z M-19 9 C-15.78658631 10.60670684 -12.37041032 9.82510855 -8.875 9.5625 C-8.12089844 9.51029297 -7.36679688 9.45808594 -6.58984375 9.40429688 C-4.7262063 9.27454996 -2.86305004 9.13792512 -1 9 C-4.04535646 6.3353131 -5.96071111 5.58805528 -10 5.625 C-10.845625 5.61726562 -11.69125 5.60953125 -12.5625 5.6015625 C-15.43365432 6.0708858 -16.83441027 7.10510899 -19 9 Z M-8 12 C-8.33 12.66 -8.66 13.32 -9 14 C-12.3 14 -15.6 14 -19 14 C-18.67 14.66 -18.34 15.32 -18 16 C-15.08913331 16.9702889 -13.09776315 17.16467847 -10.0625 17.1875 C-8.78052734 17.20876953 -8.78052734 17.20876953 -7.47265625 17.23046875 C-4.86090697 16.98703556 -3.24499348 16.3178268 -1 15 C-1 14.67 -1 14.34 -1 14 C-2.98 14 -4.96 14 -7 14 C-7.33 13.34 -7.66 12.68 -8 12 Z " fill="#4D4D4D" transform="translate(22,0)"/>
<path d="M0 0 C-0.309375 1.11375 -0.309375 1.11375 -0.625 2.25 C-1.04408751 5.32330841 -0.61949011 6.42786866 1 9 C0.21625 8.67 -0.5675 8.34 -1.375 8 C-8.08607475 6.14866904 -14.53203651 6.27664695 -21 9 C-20.67 8.01 -20.34 7.02 -20 6 C-20.66 5.67 -21.32 5.34 -22 5 C-22 4.01 -22 3.02 -22 2 C-21.34 2.20625 -20.68 2.4125 -20 2.625 C-15.98352493 3.12705938 -12.84531279 2.0941947 -9 1 C-5.76540566 0.26486492 -3.37109665 0 0 0 Z " fill="#D07438" transform="translate(22,0)"/>
<path d="M0 0 C0.61875 0.33 1.2375 0.66 1.875 1 C8.28105163 3.04993652 14.80690126 2.60762052 21 0 C19.59908008 3.38555647 18.20330189 5.18190974 15 7 C11.12204611 7.81641135 8.7804351 8.26014503 5 7 C4.67 7.99 4.34 8.98 4 10 C2.35 10 0.7 10 -1 10 C-1 8.68 -1 7.36 -1 6 C-0.34 6 0.32 6 1 6 C0.34 4.35 -0.32 2.7 -1 1 C-0.67 0.67 -0.34 0.34 0 0 Z " fill="#F37725" transform="translate(2,14)"/>
<path d="M0 0 C2.125 0.9375 2.125 0.9375 4 2 C3.67 2.99 3.34 3.98 3 5 C1.35 5 -0.3 5 -2 5 C-2 3.68 -2 2.36 -2 1 C-1.34 0.67 -0.68 0.34 0 0 Z " fill="#9C9E9F" transform="translate(3,19)"/>
</svg>
