<?xml version="1.0" encoding="UTF-8"?>
<svg version="1.1" xmlns="http://www.w3.org/2000/svg" width="24" height="24">
<path d="M0 0 C1.32 0 2.64 0 4 0 C10.32185629 15.52844311 10.32185629 15.52844311 10 21 C9.1028125 20.2265625 9.1028125 20.2265625 8.1875 19.4375 C7.465625 18.963125 6.74375 18.48875 6 18 C2.80992128 18.74891152 2.80992128 18.74891152 1.0625 21.5625 C0.381875 22.366875 -0.29875 23.17125 -1 24 C-2.32 24 -3.64 24 -5 24 C-5.185625 23.2575 -5.37125 22.515 -5.5625 21.75 C-7.60912666 17.83471421 -10.0875055 16.95624725 -14 15 C-14 14.01 -14 13.02 -14 12 C-12.390625 10.75390625 -12.390625 10.75390625 -10.25 9.5625 C-5.80106418 6.94501656 -2.87948453 4.31922679 0 0 Z " fill="#7D2616" transform="translate(14,0)"/>
<path d="M0 0 C0.99 0.33 1.98 0.66 3 1 C3.47208345 3.22209979 3.90148053 5.45329919 4.3125 7.6875 C4.67794922 9.54955078 4.67794922 9.54955078 5.05078125 11.44921875 C5 15 5 15 2.66796875 17.83203125 C1.78753906 18.54746094 0.90710938 19.26289063 0 20 C-0.66 20.66 -1.32 21.32 -2 22 C-3.32 22 -4.64 22 -6 22 C-6.8125 20.3125 -6.8125 20.3125 -7 18 C-4.625 15.3125 -4.625 15.3125 -2 13 C-0.18884044 11.18884044 -0.61800552 8.38721773 -0.4375 5.9375 C-0.35371094 4.83277344 -0.26992187 3.72804688 -0.18359375 2.58984375 C-0.12300781 1.73519531 -0.06242188 0.88054687 0 0 Z " fill="#E3730F" transform="translate(15,2)"/>
<path d="M0 0 C1.23076923 5.41538462 1.23076923 5.41538462 0.0625 8.375 C-0.288125 8.91125 -0.63875 9.4475 -1 10 C-4.37462715 9.45276317 -6.08235 8.9451 -9 7 C-9 6.01 -9 5.02 -9 4 C-2.25 0 -2.25 0 0 0 Z " fill="#6585AC" transform="translate(9,8)"/>
<path d="M0 0 C2.61455364 3.12397957 3.91744207 6.07866499 5.1875 9.9375 C5.53167969 10.95714844 5.87585938 11.97679687 6.23046875 13.02734375 C6.95813069 15.83826121 7.15405496 18.11545361 7 21 C3.72514612 19.21371607 3.05299397 18.17559196 1.953125 14.53125 C1.70190837 13.19054649 1.46800519 11.84650267 1.25 10.5 C1.12496094 9.82324219 0.99992187 9.14648438 0.87109375 8.44921875 C0.35843174 5.59295897 0 2.90655859 0 0 Z " fill="#B02E15" transform="translate(17,0)"/>
<path d="M0 0 C0.99 0.33 1.98 0.66 3 1 C1.02 5.29 -0.96 9.58 -3 14 C-5.41703243 11.58296757 -5.83849795 10.39154295 -6 7 C-4.1875 4.875 -4.1875 4.875 -2 3 C-1.34 2.01 -0.68 1.02 0 0 Z " fill="#453342" transform="translate(14,0)"/>
<path d="M0 0 C0.33 0 0.66 0 1 0 C1 5.28 1 10.56 1 16 C-0.65 16.33 -2.3 16.66 -4 17 C-3.51917969 16.30519531 -3.03835938 15.61039063 -2.54296875 14.89453125 C-0.8061222 11.63629506 -0.51385179 9.35210254 -0.3125 5.6875 C-0.21388672 4.08455078 -0.21388672 4.08455078 -0.11328125 2.44921875 C-0.05720703 1.23685547 -0.05720703 1.23685547 0 0 Z " fill="#BB4A0F" transform="translate(15,2)"/>
<path d="M0 0 C0.99 0.33 1.98 0.66 3 1 C1.68 3.64 0.36 6.28 -1 9 C-2.25541557 5.23375329 -1.37061958 3.62811066 0 0 Z " fill="#503F4E" transform="translate(14,0)"/>
</svg>
