<?xml version="1.0" encoding="UTF-8"?>
<svg version="1.1" xmlns="http://www.w3.org/2000/svg" width="24" height="24">
<path d="M0 0 C7.92 0 15.84 0 24 0 C24 7.92 24 15.84 24 24 C16.08 24 8.16 24 0 24 C0 16.08 0 8.16 0 0 Z " fill="#E0F0F6" transform="translate(0,0)"/>
<path d="M0 0 C1.76923828 0.01353516 1.76923828 0.01353516 3.57421875 0.02734375 C4.47785156 0.03894531 5.38148437 0.05054688 6.3125 0.0625 C6.3125 4.0225 6.3125 7.9825 6.3125 12.0625 C4.9925 12.3925 3.6725 12.7225 2.3125 13.0625 C1.9825 12.4025 1.6525 11.7425 1.3125 11.0625 C0.9825 12.3825 0.6525 13.7025 0.3125 15.0625 C-1.3375 15.3925 -2.9875 15.7225 -4.6875 16.0625 C-4.730221 14.39638095 -4.72813832 12.72867115 -4.6875 11.0625 C-4.3575 10.7325 -4.0275 10.4025 -3.6875 10.0625 C-4.55375 9.959375 -5.42 9.85625 -6.3125 9.75 C-9.85433123 9.02851586 -12.53062042 7.79126739 -15.6875 6.0625 C-15.6875 5.4025 -15.6875 4.7425 -15.6875 4.0625 C-13.7075 3.7325 -11.7275 3.4025 -9.6875 3.0625 C-9.6875 2.4025 -9.6875 1.7425 -9.6875 1.0625 C-6.26517028 -0.07827657 -3.60076783 -0.03565117 0 0 Z " fill="#C3E2EE" transform="translate(17.6875,-0.0625)"/>
<path d="M0 0 C1.32 0.33 2.64 0.66 4 1 C5.75 4.5625 5.75 4.5625 7 8 C7.33 6.35 7.66 4.7 8 3 C8.99 3.33 9.98 3.66 11 4 C11 8.29 11 12.58 11 17 C7.37 17 3.74 17 0 17 C0 11.39 0 5.78 0 0 Z " fill="#5C82D2" transform="translate(0,7)"/>
<path d="M0 0 C3.63 0 7.26 0 11 0 C10.01 0.33 9.02 0.66 8 1 C8 1.66 8 2.32 8 3 C6.02 3.33 4.04 3.66 2 4 C2 4.66 2 5.32 2 6 C5.99749847 7.42767802 9.81411841 8.33406429 14 9 C14.66 9.33 15.32 9.66 16 10 C15.01 10.66 14.02 11.32 13 12 C12.41518879 14.88595946 12.41518879 14.88595946 12.3125 18.125 C12.24675781 19.22070312 12.18101563 20.31640625 12.11328125 21.4453125 C12.07589844 22.28835937 12.03851563 23.13140625 12 24 C11.67 24 11.34 24 11 24 C11 19.71 11 15.42 11 11 C10.34 11 9.68 11 9 11 C8.67 12.65 8.34 14.3 8 16 C7.34 15.67 6.68 15.34 6 15 C5.26924352 12.6859378 4.59861742 10.35171131 4 8 C2.68 7.67 1.36 7.34 0 7 C0 4.69 0 2.38 0 0 Z " fill="#E3EAF7" transform="translate(0,0)"/>
<path d="M0 0 C1.92759992 1.67617384 2.90534623 2.59772148 3.5 5.125 C3.665 5.74375 3.83 6.3625 4 7 C4.99 7.33 5.98 7.66 7 8 C7 8.33 7 8.66 7 9 C3.7 9 0.4 9 -3 9 C-3 7.35 -3 5.7 -3 4 C-2.34 4 -1.68 4 -1 4 C-0.67 2.68 -0.34 1.36 0 0 Z " fill="#F4F7FC" transform="translate(3,15)"/>
<path d="M0 0 C1.32 0.33 2.64 0.66 4 1 C4.33 2.98 4.66 4.96 5 7 C4.01 7 3.02 7 2 7 C2 8.32 2 9.64 2 11 C1.34 11 0.68 11 0 11 C0 7.37 0 3.74 0 0 Z " fill="#527AD0" transform="translate(0,7)"/>
<path d="M0 0 C3.63 0 7.26 0 11 0 C10.01 0.33 9.02 0.66 8 1 C8 1.66 8 2.32 8 3 C6.02 3.33 4.04 3.66 2 4 C2 4.66 2 5.32 2 6 C1.34 6 0.68 6 0 6 C0 4.02 0 2.04 0 0 Z " fill="#F9FCFD" transform="translate(0,0)"/>
<path d="M0 0 C3.63 0 7.26 0 11 0 C11 1.98 11 3.96 11 6 C10.67 5.34 10.34 4.68 10 4 C7.67843403 3.59270772 5.3431213 3.25561323 3 3 C3 2.34 3 1.68 3 1 C2.01 0.67 1.02 0.34 0 0 Z " fill="#FAFCFD" transform="translate(13,0)"/>
<path d="M0 0 C0 1.65 0 3.3 0 5 C-1.65 5.66 -3.3 6.32 -5 7 C-5 5.02 -5 3.04 -5 1 C-2 0 -2 0 0 0 Z " fill="#5DB2D3" transform="translate(18,17)"/>
<path d="M0 0 C0 1.65 0 3.3 0 5 C-1.65 5.33 -3.3 5.66 -5 6 C-5 4.35 -5 2.7 -5 1 C-3 0 -3 0 0 0 Z " fill="#5EB3D3" transform="translate(18,10)"/>
<path d="M0 0 C0 0.66 0 1.32 0 2 C-4.75 3.125 -4.75 3.125 -7 2 C-7 1.34 -7 0.68 -7 0 C-4.3333581 -1.33332095 -2.83319697 -0.67102033 0 0 Z " fill="#6CB9D7" transform="translate(9,4)"/>
<path d="M0 0 C0.66 0 1.32 0 2 0 C2 1.65 2 3.3 2 5 C0.02 5 -1.96 5 -4 5 C-2.71937515 3.2925002 -1.38232443 1.62626404 0 0 Z " fill="#F7FBFC" transform="translate(22,19)"/>
<path d="M0 0 C0 1.65 0 3.3 0 5 C-1.32 5.33 -2.64 5.66 -4 6 C-4 4.35 -4 2.7 -4 1 C-2 0 -2 0 0 0 Z " fill="#53ADD0" transform="translate(24,14)"/>
<path d="M0 0 C0 1.65 0 3.3 0 5 C-1.32 5.33 -2.64 5.66 -4 6 C-4 4.35 -4 2.7 -4 1 C-2 0 -2 0 0 0 Z " fill="#53ADD0" transform="translate(24,7)"/>
<path d="M0 0 C0 0.66 0 1.32 0 2 C-4.75 3.125 -4.75 3.125 -7 2 C-7 1.34 -7 0.68 -7 0 C-4.3333581 -1.33332095 -2.83319697 -0.67102033 0 0 Z " fill="#6FBAD7" transform="translate(22,4)"/>
<path d="M0 0 C-0.33 0.99 -0.66 1.98 -1 3 C-2.65 2.67 -4.3 2.34 -6 2 C-6 1.34 -6 0.68 -6 0 C-3.50907189 -1.24546405 -2.58919267 -0.7767578 0 0 Z " fill="#67B7D5" transform="translate(15,7)"/>
</svg>
