<?xml version="1.0" encoding="UTF-8"?>
<svg version="1.1" xmlns="http://www.w3.org/2000/svg" width="24" height="24">
<path d="M0 0 C1.670625 0.061875 1.670625 0.061875 3.375 0.125 C6.38059652 5.13432754 6.66841888 8.45223489 6.375 14.125 C7.035 14.125 7.695 14.125 8.375 14.125 C8.375 16.435 8.375 18.745 8.375 21.125 C6.9209375 21.5890625 6.9209375 21.5890625 5.4375 22.0625 C2.53434208 22.82023342 2.53434208 22.82023342 1.375 24.125 C-1.11738569 24.25153198 -3.56970441 24.31019825 -6.0625 24.3125 C-7.10374023 24.33086914 -7.10374023 24.33086914 -8.16601562 24.34960938 C-9.98720901 24.35489842 -11.8078692 24.24669207 -13.625 24.125 C-15.625 22.125 -15.625 22.125 -15.8203125 19.3046875 C-15.79710937 18.21414062 -15.77390625 17.12359375 -15.75 16 C-15.73195313 14.90429688 -15.71390625 13.80859375 -15.6953125 12.6796875 C-15.67210937 11.83664062 -15.64890625 10.99359375 -15.625 10.125 C-10.875 9 -10.875 9 -8.625 10.125 C-8.43164062 9.57070312 -8.23828125 9.01640625 -8.0390625 8.4453125 C-7.77867187 7.72085937 -7.51828125 6.99640625 -7.25 6.25 C-6.99476562 5.53070312 -6.73953125 4.81140625 -6.4765625 4.0703125 C-4.88568723 0.4361112 -4.01401822 0.13841442 0 0 Z " fill="#F69A3C" transform="translate(15.625,-0.125)"/>
<path d="M0 0 C2.4375 0.1875 2.4375 0.1875 5 1 C7.06555687 4.08783248 7.22121756 6.59373259 7.125 10.25 C7.10695313 11.14203125 7.08890625 12.0340625 7.0703125 12.953125 C7.03550781 13.96632813 7.03550781 13.96632813 7 15 C4.125 15.125 4.125 15.125 1 15 C-1 13 -1 13 -1.23046875 10.21484375 C-1.21628906 9.13332031 -1.20210938 8.05179688 -1.1875 6.9375 C-1.18105469 5.85339844 -1.17460937 4.76929688 -1.16796875 3.65234375 C-1 1 -1 1 0 0 Z " fill="#3598CB" transform="translate(1,9)"/>
<path d="M0 0 C0.66 0.99 1.32 1.98 2 3 C7.445 2.505 7.445 2.505 13 2 C13 4.31 13 6.62 13 9 C6.07 8.505 6.07 8.505 -1 8 C-1 1 -1 1 0 0 Z " fill="#7F4E1D" transform="translate(11,12)"/>
<path d="M0 0 C0.33 0.99 0.66 1.98 1 3 C3.97 3 6.94 3 10 3 C9.34 4.32 8.68 5.64 8 7 C5.36 7 2.72 7 0 7 C0 4.69 0 2.38 0 0 Z " fill="#E88F35" transform="translate(9,17)"/>
<path d="M0 0 C0 2.31 0 4.62 0 7 C-1.65 7 -3.3 7 -5 7 C-5.1875 4.625 -5.1875 4.625 -5 2 C-2 0 -2 0 0 0 Z " fill="#070401" transform="translate(24,14)"/>
</svg>
